# xmcd
#
# Track frame offsets:
#	150
#	12497
#	23602
#	35935
#	43040
#	55767
#	67362
#	77917
#	88390
#	98445
#	109315
#	122075
#	135265
#	146077
#	158065
#	166380
#	177070
#	189995
#	191860
#	203165
#	216202
#	227750
#	236595
#	247675
#	259845
#	272717
#	286192
#	297450
#	311062
#	323980
#
# Disc length: 4438 seconds
#
# Revision: 2
# Processed by: cddbd v1.5.2PL0 Copyright (c) Steve Scherf et al.
# Submitted via: EasyCDDAExtractor 12.0.0.1
#
DISCID=be11541e
DTITLE=Various Artist - Memphis Belles: The Women Of Sun Records - Disc 03 (C
DTITLE=ountry)
DYEAR=2002
DGENRE=Country
TTITLE0=Dusty and Dot Rhodes - House Of Sin
TTITLE1=Wanda Ballman - Honky Tonk Girl
TTITLE2=Wanda Ballman - Heartbreak Girl
TTITLE3=Wanda Ballman - Honey, Tell Me Some More
TTITLE4=Kirby Sisters - I've Got The Craziest Feeling
TTITLE5=Kirby Sisters - You'll Always Belong To Me
TTITLE6=Dusty and Dot Rhodes - Gonna Romp And Stomp (Alt.)
TTITLE7=Dusty and Dot Rhodes - I've Never Been So Blue (1)
TTITLE8=Dusty and Dot Rhodes - Uncertain Love
TTITLE9=Maggie Sue Wimberly - They Who Condemn
TTITLE10=Maggie Sue Wimberly - How Long
TTITLE11=Maggie Sue Wimberly - Daydreams Come True
TTITLE12=Miller Sisters - There's No Right Way
TTITLE13=Miller Sisters - You Can Tell Me
TTITLE14=Miller Sisters - Woody
TTITLE15=Miller Sisters - Someday You Will Pay
TTITLE16=Miller Sisters - You Didn't Think I Would
TTITLE17=Miller Sisters - Chatter
TTITLE18=Miller Sisters - Look What You've Done
TTITLE19=Miller Sisters - I Know I Can't Forget You
TTITLE20=Dusty and Dot Rhodes - I've Never Been So Blue (2)
TTITLE21=Sterling Sisters - No Letter Today (Demo Version)
TTITLE22=Unknown Trio - How's The World Treating You
TTITLE23=Kirby Sisters - I've Got The Craziest Feeling
TTITLE24=Dusty and Dot Rhodes - Gonna Romp And Stomp
TTITLE25=Sterling Sisters - I Saw A Man (Demo Version)
TTITLE26=Jean Hornbeck - Bound For That Kingdom (Demo Version)
TTITLE27=Unknown Singers - House Of Gold
TTITLE28=Unknown Singers - Do You Know Jesus
TTITLE29=Unknown Singers - More Like Jesus
EXTD=YEAR: 2002 ID3G: 2
EXTT0=
EXTT1=
EXTT2=
EXTT3=
EXTT4=
EXTT5=
EXTT6=
EXTT7=
EXTT8=
EXTT9=
EXTT10=
EXTT11=
EXTT12=
EXTT13=
EXTT14=
EXTT15=
EXTT16=
EXTT17=
EXTT18=
EXTT19=
EXTT20=
EXTT21=
EXTT22=
EXTT23=
EXTT24=
EXTT25=
EXTT26=
EXTT27=
EXTT28=
EXTT29=
PLAYORDER=
